<?xml version="1.0" encoding="utf-8"?>
<!-- Generator: Adobe Illustrator 22.0.1, SVG Export Plug-In . SVG Version: 6.00 Build 0)  -->
<svg version="1.1" xmlns="http://www.w3.org/2000/svg" xmlns:xlink="http://www.w3.org/1999/xlink" x="0px" y="0px"
	 viewBox="0 0 218.3 204.6" style="enable-background:new 0 0 218.3 204.6;" xml:space="preserve">
<style type="text/css">
	.st0{fill:#0665AD;}
	.st1{fill:url(#SVGID_1_);}
	.st2{fill:url(#SVGID_2_);}
	.st3{fill:url(#SVGID_3_);}
	.st4{fill:url(#SVGID_4_);}
	.st5{fill:url(#SVGID_5_);}
	.st6{fill:url(#SVGID_6_);}
	.st7{fill:url(#SVGID_7_);}
	.st8{fill:url(#SVGID_8_);}
	.st9{fill:url(#SVGID_9_);}
	.st10{fill:url(#SVGID_10_);}
	.st11{fill:url(#SVGID_11_);}
	.st12{fill:url(#SVGID_12_);}
	.st13{fill:url(#SVGID_13_);}
	.st14{fill:url(#SVGID_14_);}
</style>
<g id="Layer_1">
</g>
<g id="Layer_2">
	<g>
		<g>
			<path class="st0" d="M193.3,78c-0.9,0.1-1.8,0.2-2.7,0.2c-0.6,0-1.2,0-1.8-0.1c0.3,1.5,0.6,3.1,0.8,4.6
				c4.8,33.5-10.4,65.2-36.4,82.5c28.4-17.7,45.3-51.1,40.3-86.4C193.4,78.5,193.3,78.3,193.3,78z"/>
			<path class="st0" d="M26.6,106c-3.9-27.1,5.3-53,22.7-71c-2.6-0.5-4.4-2.2-5.4-4.2c-17.8,18.7-27.3,45.1-23.3,72.6
				c5.8,40.5,38.5,70.5,77.4,74.5C62,173.2,32,144.4,26.6,106z"/>
			<path class="st0" d="M94.7,4.7C79.3,6.9,65.5,13,54,21.7c2.6,0.6,4.4,2.3,5.3,4.4c10.5-7.8,23-13.2,36.8-15.2
				c28.4-4.1,55.6,7.3,73.4,27.8c1.3-1.4,2.9-2.5,4.6-3.4C155.4,12.9,125.8,0.3,94.7,4.7z"/>
			<g>
				<linearGradient id="SVGID_1_" gradientUnits="userSpaceOnUse" x1="147.8133" y1="89.0161" x2="187.6996" y2="89.0161">
					<stop  offset="0" style="stop-color:#EAE95A"/>
					<stop  offset="3.476592e-02" style="stop-color:#EADA56"/>
					<stop  offset="0.1117" style="stop-color:#EAC350"/>
					<stop  offset="0.1965" style="stop-color:#E9AF4B"/>
					<stop  offset="0.2895" style="stop-color:#E99E46"/>
					<stop  offset="0.394" style="stop-color:#E99243"/>
					<stop  offset="0.5166" style="stop-color:#E98941"/>
					<stop  offset="0.6741" style="stop-color:#E98440"/>
					<stop  offset="0.99" style="stop-color:#E9833F"/>
				</linearGradient>
				<path class="st1" d="M187.6,83.6c0.2-0.9,0.5-1-3.7-1.6c-11.9-1.4-23.8-2.9-36.1-4.4c0.4,1.4,0.5,1.8,0.6,2
					c4,8.3,9.7,14.4,17.5,20.5c2.1,1.7,14.7-4.7,18.2-10.3C184.4,89.5,187,85.4,187.6,83.6z"/>
				<linearGradient id="SVGID_2_" gradientUnits="userSpaceOnUse" x1="152.4607" y1="58.9874" x2="207.1288" y2="58.9874">
					<stop  offset="0" style="stop-color:#EAE95A"/>
					<stop  offset="3.476592e-02" style="stop-color:#EADA56"/>
					<stop  offset="0.1117" style="stop-color:#EAC350"/>
					<stop  offset="0.1965" style="stop-color:#E9AF4B"/>
					<stop  offset="0.2895" style="stop-color:#E99E46"/>
					<stop  offset="0.394" style="stop-color:#E99243"/>
					<stop  offset="0.5166" style="stop-color:#E98941"/>
					<stop  offset="0.6741" style="stop-color:#E98440"/>
					<stop  offset="0.99" style="stop-color:#E9833F"/>
				</linearGradient>
				<path class="st2" d="M202.3,41.8c-1.8,1.1-37.7,23.1-42.7,26.4c-2.2,1.5-4.2,3.3-7.1,5.5c2.6,0.6,4.4,1.3,6.2,1.4
					c7.6,0.6,15.1,1.1,22.7,1.6c1.3,0.1,11.3-0.5,12.4-0.9c0.6-0.5,1.1-0.9,1.5-1.4c6.1-7.5,8.9-16.6,11.3-25.8
					C207.8,44,207.2,39.7,202.3,41.8z"/>
				<linearGradient id="SVGID_3_" gradientUnits="userSpaceOnUse" x1="113.0472" y1="71.8998" x2="217.4734" y2="71.8998">
					<stop  offset="0.235" style="stop-color:#EAE95A"/>
					<stop  offset="0.2639" style="stop-color:#EAE258"/>
					<stop  offset="0.515" style="stop-color:#EABA4D"/>
					<stop  offset="0.7283" style="stop-color:#E99B46"/>
					<stop  offset="0.8933" style="stop-color:#E98941"/>
					<stop  offset="0.99" style="stop-color:#E9833F"/>
				</linearGradient>
				<path class="st3" d="M217.5,4.8c-0.1-1.7-0.3-3.2-0.4-4.7c-1.4,0.8-2.1,1.6-2.4,2.5c-0.2,0.6-0.4,1-0.6,1.5
					c-0.4,1-0.8,2-1.3,2.8c-0.9,1.3-9.2,10.8-12.7,13.4c-7.5,5.7-15.3,11-23,16.5c-1.3,0.9-9.7,6.7-10.5,7.3
					c-7.1,5-14.2,9.8-21,15.1C135,67.3,127,77.5,121.3,89.6c-5.7,12-7.5,24.9-8.2,37.9c-0.3,5.4,1,10.8,1.6,16.2
					c1-4.9,1.5-9.6,2.1-14.4c2-15.4,6.1-29.9,15.3-42.9c6-8.5,12.9-15.6,21.5-21.2c6.1-3.9,12.2-7.7,18.2-11.7
					c1.4-0.9,10.1-5.6,11.4-6.3C186,45.9,205.4,36,209,34c1.3-0.7,2.6-2.2,3-3.6c1.8-6,3.3-12.1,4.6-18.2c0.1-0.2,0.1-0.5,0.2-0.6
					C216.9,9.3,217.4,7.1,217.5,4.8z"/>
				<linearGradient id="SVGID_4_" gradientUnits="userSpaceOnUse" x1="141.1868" y1="95.4266" x2="160.0436" y2="95.4266">
					<stop  offset="0" style="stop-color:#EAE95A"/>
					<stop  offset="3.476592e-02" style="stop-color:#EADA56"/>
					<stop  offset="0.1117" style="stop-color:#EAC350"/>
					<stop  offset="0.1965" style="stop-color:#E9AF4B"/>
					<stop  offset="0.2895" style="stop-color:#E99E46"/>
					<stop  offset="0.394" style="stop-color:#E99243"/>
					<stop  offset="0.5166" style="stop-color:#E98941"/>
					<stop  offset="0.6741" style="stop-color:#E98440"/>
					<stop  offset="0.99" style="stop-color:#E9833F"/>
				</linearGradient>
				<path class="st4" d="M142.6,80.7c5,6.1,9.5,11.5,13.9,16.8c0.5,0.6,4.5,4.5,3.4,7.2c-1.2,2.9-4.5,4.6-8,5.3
					c-0.3,0.1-1.3-0.5-1.7-1c-6.2-6.7-9.6-14.6-8.8-23.9C141.4,84,142,82.8,142.6,80.7z"/>
				<linearGradient id="SVGID_5_" gradientUnits="userSpaceOnUse" x1="119.8885" y1="121.0408" x2="131.0736" y2="121.0408">
					<stop  offset="0" style="stop-color:#EAE95A"/>
					<stop  offset="3.476592e-02" style="stop-color:#EADA56"/>
					<stop  offset="0.1117" style="stop-color:#EAC350"/>
					<stop  offset="0.1965" style="stop-color:#E9AF4B"/>
					<stop  offset="0.2895" style="stop-color:#E99E46"/>
					<stop  offset="0.394" style="stop-color:#E99243"/>
					<stop  offset="0.5166" style="stop-color:#E98941"/>
					<stop  offset="0.6741" style="stop-color:#E98440"/>
					<stop  offset="0.99" style="stop-color:#E9833F"/>
				</linearGradient>
				<path class="st5" d="M120,146.6c0-3.5-0.2-7,0-10.4c0.6-7.8,0.8-15.6,2.3-23.3c0.9-5.1,3.6-9.9,5.6-14.8
					c0.4-0.9,1.6-1.4,3.2-2.7c-1.7,10.5-3,20-4.9,29.4c-1.5,7.2-3.8,14.3-5.8,21.5C120.3,146.4,120.1,146.5,120,146.6z"/>
				<linearGradient id="SVGID_6_" gradientUnits="userSpaceOnUse" x1="109.4746" y1="153.6834" x2="134.1409" y2="202.0675">
					<stop  offset="0.35" style="stop-color:#E3E53D"/>
					<stop  offset="0.9944" style="stop-color:#1C7D3E"/>
				</linearGradient>
				<path class="st6" d="M125.3,200.4c-0.7-11.5-1.4-22.8-2.1-34.7c4.5,8.3,9.9,15.6,10.3,25C133.7,197.1,131.8,199.3,125.3,200.4z"
					/>
				<linearGradient id="SVGID_7_" gradientUnits="userSpaceOnUse" x1="133.2918" y1="100.5762" x2="143.7142" y2="100.5762">
					<stop  offset="0" style="stop-color:#EAE95A"/>
					<stop  offset="3.476592e-02" style="stop-color:#EADA56"/>
					<stop  offset="0.1117" style="stop-color:#EAC350"/>
					<stop  offset="0.1965" style="stop-color:#E9AF4B"/>
					<stop  offset="0.2895" style="stop-color:#E99E46"/>
					<stop  offset="0.394" style="stop-color:#E99243"/>
					<stop  offset="0.5166" style="stop-color:#E98941"/>
					<stop  offset="0.6741" style="stop-color:#E98440"/>
					<stop  offset="0.99" style="stop-color:#E9833F"/>
				</linearGradient>
				<path class="st7" d="M137.7,86.7c1.7,7.1,5.2,20.6,5.6,21.8c0.8,2.6,0.5,3.5-1.9,4.4c-7.2,2.8-8.4,2.2-8-5.3
					c0.3-5.6,1.4-11.2,2.2-16.7C135.8,89.7,136.7,88.6,137.7,86.7z"/>
				<linearGradient id="SVGID_8_" gradientUnits="userSpaceOnUse" x1="100.3235" y1="158.3487" x2="124.9899" y2="206.7327">
					<stop  offset="0.35" style="stop-color:#E3E53D"/>
					<stop  offset="0.9944" style="stop-color:#1C7D3E"/>
				</linearGradient>
				<path class="st8" d="M118.4,171.8c0.4,1.8,0.8,3.6,1.1,5.4c0.7,4.7,1.4,9.4,1.8,14.1c0.5,5.1-1.9,7.9-7,8.7
					c-1,0.2-2.1,0.2-3.8,0.4c0.7-10.2,5.2-19.1,6.9-28.7C117.8,171.7,118.1,171.7,118.4,171.8z"/>
				<linearGradient id="SVGID_9_" gradientUnits="userSpaceOnUse" x1="121.761" y1="147.4198" x2="146.4273" y2="195.8038">
					<stop  offset="0.35" style="stop-color:#E3E53D"/>
					<stop  offset="0.9944" style="stop-color:#1C7D3E"/>
				</linearGradient>
				<path class="st9" d="M138.5,191.3c-3.7-8.1-7.4-16.2-11.2-24.4c0.1-0.2,0.3-0.3,0.4-0.5c3.2,2.4,6.4,4.8,9.6,7.2
					c1.9,1.5,3.9,3,5.6,4.8c0.8,0.9,1.7,2.6,1.3,3.6c-1.1,3.3-2.8,6.5-4.3,9.7C139.5,191.5,139,191.4,138.5,191.3z"/>
				<linearGradient id="SVGID_10_" gradientUnits="userSpaceOnUse" x1="125.7105" y1="145.4063" x2="150.3769" y2="193.7903">
					<stop  offset="0.35" style="stop-color:#E3E53D"/>
					<stop  offset="0.9944" style="stop-color:#1C7D3E"/>
				</linearGradient>
				<path class="st10" d="M129.7,162.6c4.7,2.2,9.8,3.9,14.1,6.7c2.6,1.7,1.8,5.2,0.4,8.9c-5.3-4.9-10.3-9.5-15.3-14.2
					C129.1,163.6,129.4,163.1,129.7,162.6z"/>
				<linearGradient id="SVGID_11_" gradientUnits="userSpaceOnUse" x1="79.4628" y1="26.5882" x2="134.4877" y2="63.2715">
					<stop  offset="0" style="stop-color:#6BAA43"/>
					<stop  offset="1" style="stop-color:#586CB3"/>
				</linearGradient>
				<path class="st11" d="M115.1,36C95.4,24,81.8,31.8,79.4,32.7c-2.9,1.1-3.5,1.4-5.6,2.8c0,0,1,1.1,1,1.1
					c4.6,5.5,8.9,6.7,15.7,6.9c0.2,0,0.4,0,0.6-0.1c0.5-0.1,1-0.3,1.4-0.5c1.2-0.9,2.6-1.6,4.1-2.1c4.3-1.2,8.8,1.8,8.9,1.9
					c3.2,1.9,3.5,6.9,2.5,10.7c0,1,0.1,1.9,0.2,2.9c1.2,3.8,4.2,6.4,7.6,8.7c2.9,1.9,7.3,5.6,11.1,4.5c0.2-0.2,0.3-0.4,0.4-0.6
					C129.8,61.5,122.7,40.7,115.1,36z"/>
				<linearGradient id="SVGID_12_" gradientUnits="userSpaceOnUse" x1="98.8662" y1="129.7683" x2="72.3025" y2="57.6666">
					<stop  offset="0" style="stop-color:#E3E53D"/>
					<stop  offset="0.9944" style="stop-color:#1C7D3E"/>
				</linearGradient>
				<path class="st12" d="M103.8,147.7C74.7,119.2,80,82,75.8,45.5c3.1,4.3,4.5,7.1,4.9,9.9c1.7,12.9,2.6,24.8,3.8,37.8
					c1.7,18.1,5.3,27.8,16.1,44.7C101.1,138.7,104.2,145.8,103.8,147.7z"/>
				<linearGradient id="SVGID_13_" gradientUnits="userSpaceOnUse" x1="2.3845" y1="23.495" x2="70.0474" y2="23.495">
					<stop  offset="0" style="stop-color:#E3E53D"/>
					<stop  offset="0.9944" style="stop-color:#1C7D3E"/>
				</linearGradient>
				<path class="st13" d="M68.1,39.5C45.9,29,24.1,18.6,2.4,8.3c0-0.3,0-0.6,0.1-0.9C8.6,9.1,15,10.4,21,12.6
					c14.7,5.6,34.5,13.9,49,19.9C69.1,36,69.8,34,68.1,39.5z"/>
				<linearGradient id="SVGID_14_" gradientUnits="userSpaceOnUse" x1="93.618" y1="51.8191" x2="103.5572" y2="51.8191">
					<stop  offset="0" style="stop-color:#6BAA43"/>
					<stop  offset="1" style="stop-color:#639764"/>
				</linearGradient>
				<circle class="st14" cx="98.6" cy="51.8" r="5"/>
			</g>
		</g>
	</g>
</g>
</svg>
