<svg id="Layer_1" data-name="Layer 1" xmlns="http://www.w3.org/2000/svg" viewBox="0 0 59.68 63.93"><path d="M9.81,68.08a1.27,1.27,0,0,1-1.07-2l7.73-10.25-.86-.45c-.63-.36-1.24-.73-1.83-1.13C7.32,49.88,3.6,42.81,10.69,34.83c4.58-5.15,13.22-5.72,21.53-5.53l4.1.15,8.07-10.71-.23-.17c-3.33-2.88-4.2-7.2,1.4-11.86C54.9-1,70.06,10.1,65.79,23.3c-2.64,8.16-12.1,9.09-21.58,8.93l-2.94-.09L21.37,55.25l1.16.43c4.3,1.41,8.64,1.86,11.35,1.2,7.5-1.85,6.75-8.08,1.72-8.41a1.25,1.25,0,0,1,.17-2.5c8.22.55,8.87,10.83-1.29,13.33a15.89,15.89,0,0,1-4.56.35A32.5,32.5,0,0,1,21.7,58l-2.09-.76L10.69,67.63A1.17,1.17,0,0,1,9.81,68.08ZM18,53.79,34.47,31.91l-3-.09c-8.29-.14-15.2.48-18.93,4.67C6.79,43,9.47,48.32,15.18,52.17a25,25,0,0,0,2.3,1.38ZM33.61,37.2,38.07,32l-.55,0Zm10.92-7.47c9.65.12,16.85-.93,18.88-7.2C67.05,11.29,54.26,2.74,47.16,8.64c-3.67,3-3.72,5.43-2.16,7.28l.88.85,3-4c1.41-1.86,3.6-3,5.38-2.31,2.21.86,2.08,3.37.59,5.89a1,1,0,0,1-.13.18l-2.66,3.09,1.15.26a9.69,9.69,0,0,0,4.88-.09,1.25,1.25,0,1,1,1,2.28c-1.88.84-5.07.69-8.18-.15l-.66-.21-6.89,8Zm-4.37-.12,7.61-8.83-.44-.19-.86-.46-7.12,9.45Zm9.32-10.82L52.76,15l.35-.65c.73-1.51.14-1.6.25-1.56-.22-.08-1.34,0-2.47,1.49L48,18.11l.5.27Z" transform="translate(-6.85 -4.15)"/></svg>