<svg id="Layer_1" data-name="Layer 1" xmlns="http://www.w3.org/2000/svg" viewBox="0 0 68.41 52.67"><defs><style>.cls-1{fill:none;stroke:#313131;stroke-linecap:round;stroke-linejoin:round;stroke-width:1.8px;}</style></defs><line class="cls-1" x1="48.35" y1="12.64" x2="53.55" y2="12.64"/><path class="cls-1" d="M55.26,22.05V12.29a2,2,0,0,0-2.06-2H18.64a2,2,0,0,0-2.06,2v9.76" transform="translate(-1.71 -9.41)"/><line class="cls-1" x1="66.19" y1="49.16" x2="2.21" y2="49.16"/><line class="cls-1" x1="66.19" y1="49.16" x2="66.19" y2="51.77"/><line class="cls-1" x1="2.21" y1="49.16" x2="2.21" y2="51.77"/><path class="cls-1" d="M21.49,22.33a21.79,21.79,0,0,1,.38-3.94A2.38,2.38,0,0,1,24,16.51a40.38,40.38,0,0,1,4.7-.21,35.56,35.56,0,0,1,7.75.58,29,29,0,0,1,.43,5.45,28.27,28.27,0,0,1-.43,5.41" transform="translate(-1.71 -9.41)"/><path class="cls-1" d="M35.92,16.77a43.06,43.06,0,0,1,7.22-.47,42.78,42.78,0,0,1,4.58.19,2.37,2.37,0,0,1,2.15,2.05,35.69,35.69,0,0,1,.19,3.79c0,1.33-.07,2.44-.14,3.31a2.41,2.41,0,0,1-2.47,2.1H42" transform="translate(-1.71 -9.41)"/><line class="cls-1" x1="35.15" y1="18.34" x2="41.28" y2="18.34"/><path class="cls-1" d="M65.24,37l3.21,6a6.51,6.51,0,0,1,.77,3.11V58.57h-2" transform="translate(-1.71 -9.41)"/><path class="cls-1" d="M36.87,27.75H12.38a1.46,1.46,0,0,0-1.27.8" transform="translate(-1.71 -9.41)"/><path class="cls-1" d="M11.15,28.49,3.38,43a6.63,6.63,0,0,0-.77,3.11V58.57H4.69" transform="translate(-1.71 -9.41)"/><polyline class="cls-1" points="19.48 12.64 14.87 12.64 11.81 18.34"/><line class="cls-1" x1="39.02" y1="18.34" x2="63.52" y2="27.58"/><line class="cls-1" x1="53.55" y1="12.64" x2="60.93" y2="26.44"/><path class="cls-1" d="M40.73,28.15v7.56a2.28,2.28,0,0,0,2.32,2.23H64.87" transform="translate(-1.71 -9.41)"/><path class="cls-1" d="M21.49,22.33c0,1.33.06,2.44.14,3.31a2.41,2.41,0,0,0,2.47,2.1" transform="translate(-1.71 -9.41)"/></svg>