<svg id="Layer_1" data-name="Layer 1" xmlns="http://www.w3.org/2000/svg" viewBox="0 0 60 68.86"><defs><style>.cls-1,.cls-2{fill:none;}.cls-2{stroke:#414042;stroke-linecap:round;stroke-linejoin:round;}</style></defs><rect class="cls-1" y="4.96" width="60" height="60"/><path class="cls-2" d="M47.3,19l2.33-5.85h0a8.57,8.57,0,0,1-2.51-6.07V.59h-5V8.13L35.8,15.68,29.52,8.13V.59h-5v6.5A8.57,8.57,0,0,1,22,13.16h0l5,12.57S13.86,43.17,10.25,62.3a4.2,4.2,0,0,0,5.46,4.75h0a4.11,4.11,0,0,1,2.48,0l2.39.68A19.9,19.9,0,0,0,31,67.85h0a20.19,20.19,0,0,1,9.71,0h0A19.9,19.9,0,0,0,51,67.68L53.41,67a4.11,4.11,0,0,1,2.48,0h0a4.2,4.2,0,0,0,5.47-4.75C57.75,43.17,44.61,25.73,44.61,25.73" transform="translate(-5.05 -0.09)"/><line class="cls-2" x1="21.95" y1="25.64" x2="26.97" y2="25.64"/><path class="cls-2" d="M43.35,25.73S41,28.25,39.58,28.25a2.52,2.52,0,1,1,0-5C41,23.22,43.35,25.73,43.35,25.73Z" transform="translate(-5.05 -0.09)"/><path class="cls-2" d="M43.35,25.73s2.38,2.52,3.77,2.52a2.52,2.52,0,0,0,0-5C45.73,23.22,43.35,25.73,43.35,25.73Z" transform="translate(-5.05 -0.09)"/><polyline class="cls-2" points="37.04 36.96 38.3 25.64 42.07 40.73"/></svg>