<svg id="Layer_1" data-name="Layer 1" xmlns="http://www.w3.org/2000/svg" viewBox="0 0 60 60"><defs><style>.cls-1,.cls-2{fill:none;}.cls-2{stroke:#414042;stroke-linecap:round;stroke-linejoin:round;}</style></defs><rect class="cls-1" width="60" height="60"/><path class="cls-2" d="M15.93,8.63l.93-2.33h0a3.4,3.4,0,0,1-1-2.41V1.3h-2v3l-2.5,3-2.5-3v-3h-2V3.89a3.4,3.4,0,0,1-1,2.41h0l2,5S2.63,18.24,1.2,25.85a1.67,1.67,0,0,0,2.17,1.89h0a1.67,1.67,0,0,1,1,0l.95.28a8.1,8.1,0,0,0,4.12.07h0a7.88,7.88,0,0,1,3.86,0h0A8.1,8.1,0,0,0,17.41,28l.95-.28a1.67,1.67,0,0,1,1,0h0a1.67,1.67,0,0,0,2.17-1.89c-1.43-7.61-6.66-14.55-6.66-14.55" transform="translate(18.64 15.2)"/><line class="cls-2" x1="26.5" y1="26.5" x2="28.5" y2="26.5"/><path class="cls-2" d="M14.36,11.3s-.95,1-1.5,1a1,1,0,0,1,0-2C13.41,10.3,14.36,11.3,14.36,11.3Z" transform="translate(18.64 15.2)"/><path class="cls-2" d="M14.36,11.3s1,1,1.5,1a1,1,0,0,0,0-2C15.31,10.3,14.36,11.3,14.36,11.3Z" transform="translate(18.64 15.2)"/><polyline class="cls-2" points="32.5 31 33 26.5 34.5 32.5"/></svg>