<?xml version="1.0" encoding="utf-8"?>
<!-- Generator: Adobe Illustrator 24.1.2, SVG Export Plug-In . SVG Version: 6.00 Build 0)  -->
<svg version="1.1" xmlns="http://www.w3.org/2000/svg" xmlns:xlink="http://www.w3.org/1999/xlink" x="0px" y="0px"
	 viewBox="0 0 590 225" style="enable-background:new 0 0 590 225;" xml:space="preserve">
<style type="text/css">
	.st0{fill:#6C9F4B;}
	.st1{fill:#6B9F49;}
	.st2{fill:#6C9F4A;}
	.st3{fill:#1C639D;}
</style>
<g id="Layer_1">
</g>
<g id="Layer_2">
	<g>
		<g>
			<g>
				<path class="st0" d="M418.96,135.65c-10.36,0.24-18.78-3.84-25.52-11.54c-1.63-1.87-2.75-2.78-4.85-0.28
					c-8.02,9.54-18.62,12.69-30.74,11.88c-1.86-0.12-2.87-0.56-2.62-2.57c0.02-0.13,0-0.27,0-0.41c0.03-3.41-1.11-7.52,0.41-10.03
					c1.74-2.87,6.21-0.89,9.46-1.19c13.04-1.19,22.57-17.05,17.29-29.05c-4.36-9.9-11.48-15.76-22.8-14.86
					c-3.71,0.29-4.53-1.01-4.45-4.55c0.23-10.19,0.08-10.31,10.44-9.39c9.08,0.8,16.7,4.86,22.78,11.54
					c2.18,2.39,3.15,2.15,5.21-0.14c8.14-9.06,18.62-12.32,30.57-11.54c1.48,0.1,2.35,0.46,2.23,2.09c-0.03,0.41,0.01,0.82,0,1.23
					c-0.03,3.27,1.01,7.15-0.39,9.65c-1.53,2.71-5.76,1.02-8.74,1.15c-11.52,0.5-20.53,14.4-19.39,24.34
					c1.06,9.3,9.41,20.1,21.85,19.61c6.67-0.26,6.68,0,6.68,6.54c0,0.14,0,0.27,0,0.41C426.37,135.75,426.37,135.75,418.96,135.65z"
					/>
				<path class="st0" d="M344.75,86.04c-0.51,6.56,0.83,14.48-1.05,22.32c-3.2,13.39-15.71,25.24-28.77,26.95
					c-15.96,2.09-30.81-5.32-37.54-19.04c-2.53-5.15-3.93-10.74-3.97-16.55c-0.06-10.91,0.07-21.83-0.12-32.74
					c-0.05-2.98,0.99-3.58,3.74-3.58c10.84,0,10.84-0.09,10.84,10.71c0,8.59-0.07,17.19,0.03,25.78c0.16,12.42,9,21.48,20.88,21.55
					c12.2,0.07,21.68-9.23,21.85-21.68c0.15-10.91,0.15-21.83-0.02-32.74c-0.05-2.93,0.88-3.62,3.68-3.62
					c10.45,0,10.45-0.1,10.45,10.29C344.75,77.37,344.75,81.06,344.75,86.04z"/>
				<path class="st1" d="M247.82,85.1c0-15.41,0.08-30.83-0.07-46.24c-0.03-3.01,0.68-3.97,3.83-3.93
					c10.27,0.12,10.27-0.01,10.27,10.08c0,28.78-0.06,57.56,0.07,86.34c0.02,3.35-0.75,4.39-4.23,4.32
					c-9.88-0.21-9.88-0.04-9.88-10.05C247.82,112.11,247.82,98.61,247.82,85.1z"/>
				<path class="st2" d="M159.27,70c0.01,0,0.01,0,0.02,0c0-8,0-16.28,0-24.46c0-10.93,0-10.8-11.01-10.64
					c-2.79,0.04-3.45,1.05-3.39,3.62c0.14,6.95-0.09,13.91,0.11,20.86c0.09,3.06-0.58,4.36-3.98,4.16
					c-5.16-0.31-10.36,0.16-15.53-0.12c-19.93-1.08-38.53,15.49-37.39,38.73c1.08,22.15,24.63,38.96,45.75,32.15
					c15.28-4.93,25.21-18.32,25.4-34.39C159.37,89.97,159.27,79,159.27,70z M144.92,92.6c-0.46,4.7,0.97,10.49-1.63,15.96
					c-3.63,7.63-9.43,12.21-17.94,12.82c-9.2,0.66-16.23-3.3-20.51-11.32c-4.01-7.51-3.41-15,1.15-22.42
					c4.56-7.42,11.09-10.34,19.44-10.23c5.44,0.07,10.89,0.13,16.33-0.05c2.56-0.08,3.31,0.81,3.2,3.26
					C144.8,84.31,144.92,87.99,144.92,92.6z"/>
				<path class="st1" d="M470.17,113.14c10.42-10.55,21.36-20.61,31.06-31.86c0.86-0.99,2.85-1.78,0.94-3.56
					c-4.09-3.81-8.1-7.77-13.16-10.28c-21.03-10.46-43.62,2.76-49.01,19.6c-5.08,15.88-0.2,33.51,12.83,42.64
					c12.71,8.9,33.18,8.6,45.41-4.04c5.02-5.19,5.19-5.02,0.1-10.12c-4.84-4.86-4.84-4.86-9.82-0.2c-7.28,6.81-16.71,8.48-24.03,4.2
					C466.02,117.05,468.18,115.16,470.17,113.14z M455.44,107.87c-1.46,1.54-1.97,0.55-2.53-0.71c-1.32-2.97-1.48-6.16-1.05-9.25
					c1.99-14.32,14.95-24.98,30.28-17.82C474.08,90.43,464.21,98.63,455.44,107.87z"/>
				<path class="st0" d="M233.33,117.37c-2.35-1.81-3.98-5.45-6.44-6.01c-3.06-0.7-4.6,3.51-6.96,5.39
					c-6.8,5.43-15.8,6.66-22.59,2.61c1.05-1.12,2.06-2.19,3.06-3.27c10.53-11.36,22.29-21.51,32.48-33.23
					c2.78-3.2,2.94-4.5-0.19-7.51c-8.32-8-17.84-12.61-29.44-11.51c-21.03,1.99-35.37,20.84-32.2,41.88
					c2.56,17.01,18.14,30.36,34.52,30.15c11.15-0.14,19.95-4.2,27.53-12.06C235.47,121.37,236.57,119.87,233.33,117.37z
					 M185.74,106.81c-1.18-3.16-1.38-6.45-0.81-9.65c2.38-13.49,15.15-24.42,30.41-16.99c-8.46,9.89-17.67,18.51-26.59,27.4
					C187.06,109.24,186.43,108.65,185.74,106.81z"/>
			</g>
			<g>
				<path class="st3" d="M142.77,173.33c0,3.5-0.15,7,0.04,10.49c0.18,3.24-1.99,2.54-3.8,2.59c-1.78,0.05-3.44,0.37-3.35-2.55
					c0.21-6.95,0.01-13.91,0.12-20.86c0.02-1.27-1.03-3.53,1.11-3.67c2.32-0.15,5.22-1.47,6.96,1.63c2.23,3.98,4.58,7.9,7.66,11.75
					c0-3.58,0.22-7.17-0.06-10.72c-0.27-3.5,2-2.7,3.94-2.86c2.27-0.19,3.43,0.23,3.34,3c-0.22,6.81-0.01,13.64-0.13,20.46
					c-0.02,1.26,1.07,3.54-1.14,3.65c-2.34,0.11-5.26,1.5-7.03-1.51c-2.26-3.85-4.5-7.71-6.74-11.56
					C143.39,173.23,143.08,173.28,142.77,173.33z"/>
				<path class="st3" d="M518.04,172.74c0,3.77-0.14,7.55,0.05,11.32c0.13,2.64-1.48,2.47-3.13,2.33c-1.53-0.13-3.71,0.93-3.66-2.2
					c0.11-7.63,0.03-15.26,0.05-22.89c0-0.89-0.23-2.22,1.21-2.06c2.25,0.25,4.9-1.3,6.6,1.64c2.35,4.06,4.91,8,8.01,13.02
					c0-4.81,0.16-8.55-0.05-12.26c-0.17-2.95,1.69-2.54,3.42-2.47c1.59,0.07,3.67-0.78,3.62,2.29c-0.12,7.49-0.03,14.98-0.04,22.48
					c0,1.06,0.18,2.51-1.41,2.39c-2.37-0.19-5.16,1.3-6.89-1.9c-2.18-4.05-4.69-7.92-7.05-11.87
					C518.53,172.62,518.28,172.68,518.04,172.74z"/>
				<path class="st3" d="M164.19,172.69c0-3.68,0.1-7.37-0.03-11.05c-0.07-1.99,0.66-2.56,2.58-2.52c5.04,0.11,10.1,0.14,15.14-0.01
					c2.25-0.07,2.36,1.05,2.33,2.74c-0.04,1.72,0.15,3.28-2.45,3.08c-2.58-0.2-5.18,0.01-7.77-0.06c-1.54-0.04-2.2,0.49-2.16,2.12
					c0.03,1.46,0.33,2.33,2.02,2.27c2.04-0.07,4.1,0.14,6.13-0.04c2.45-0.21,3.28,0.59,3.32,3.16c0.05,2.9-1.65,2.54-3.42,2.53
					c-1.77-0.01-3.56,0.13-5.32-0.04c-2.22-0.2-2.77,0.73-2.77,2.81c0,2.01,0.71,2.65,2.63,2.54c2.18-0.12,4.37,0.06,6.54-0.05
					c2.32-0.11,3.72,0.1,3.76,3.18c0.04,3.25-1.66,3.09-3.83,3.06c-4.5-0.05-9.01-0.15-13.5,0.03c-2.44,0.1-3.43-0.5-3.26-3.13
					C164.36,179.8,164.18,176.24,164.19,172.69z"/>
				<path class="st3" d="M84.17,171.93c0.37-3.61-1.92-9.55,0.86-12.06c2.43-2.2,8.27-0.63,12.6-0.71c1.23-0.02,2.47,0.12,3.68-0.02
					c2.27-0.27,2.71,0.82,2.67,2.84c-0.04,1.9-0.24,3.12-2.62,2.95c-2.44-0.18-4.9,0.02-7.35-0.05c-1.56-0.04-2.54,0.17-2.53,2.15
					c0.01,1.85,0.72,2.36,2.41,2.26c1.9-0.1,3.82,0.08,5.72-0.05c2.24-0.15,3.45,0.21,3.43,3.01c-0.02,2.71-1.33,2.77-3.27,2.69
					c-1.77-0.08-3.55,0.07-5.31-0.04c-1.88-0.11-2.99,0.11-3.02,2.53c-0.03,2.54,1.06,2.96,3.17,2.82c1.9-0.13,3.82,0.09,5.72-0.05
					c2.48-0.18,3.98,0.09,4.04,3.32c0.07,3.42-1.9,2.93-3.93,2.92c-4.22-0.01-8.46-0.17-12.67,0.06c-2.74,0.15-3.92-0.49-3.68-3.5
					C84.38,179.59,84.17,176.16,84.17,171.93z"/>
				<path class="st3" d="M549.3,187.03c-4.35-0.04-8.16-1.13-9.78-5.71c-0.42-1.2-2.15-3.27-0.24-3.78
					c1.95-0.52,4.94-1.96,6.49,0.94c1.12,2.11,2.48,3.15,4.83,2.79c1.33-0.2,2.29-0.96,2.52-2.31c0.22-1.26-0.61-2.12-1.65-2.54
					c-2.14-0.86-4.36-1.51-6.51-2.34c-3.7-1.44-5.82-4.11-5.42-8.15c0.4-3.97,2.74-6.28,6.78-7.01c4.4-0.79,8.47-0.56,11.51,3.17
					c0.98,1.2,2.47,3.42,0.94,4.2c-1.76,0.89-4.58,2.15-6.46-0.38c-0.76-1.02-1.34-2.05-2.7-2.23c-1.27-0.16-2.5-0.12-3.08,1.32
					c-0.67,1.65,0.56,2.24,1.7,2.65c1.78,0.65,3.67,1.01,5.45,1.67c4.96,1.85,7.26,5.23,6.56,9.47c-0.77,4.69-4.34,7.85-9.3,8.23
					C550.39,187.07,549.85,187.03,549.3,187.03z"/>
				<path class="st3" d="M225.17,187.04c-4.23-0.07-7.8-1.33-9.51-5.6c-0.51-1.28-1.75-3.49-0.26-3.85
					c1.95-0.47,4.86-2.04,6.41,0.92c1.01,1.93,2.25,2.98,4.44,2.83c1.36-0.09,2.38-0.67,2.73-2.03c0.36-1.4-0.31-2.44-1.58-2.93
					c-1.64-0.64-3.35-1.08-5.01-1.68c-5-1.82-7.26-5.08-6.59-9.44c0.59-3.87,4.01-6.53,9.01-6.67c3.58-0.1,7.21,0.19,9.24,3.83
					c0.7,1.26,2.38,3.38,0.69,4.07c-1.75,0.71-4.42,1.85-6.37-0.38c-0.53-0.6-0.85-1.43-1.47-1.88c-1.05-0.77-2.28-0.78-3.49-0.23
					c-0.88,0.4-1.15,1.18-1,2.02c0.23,1.28,1.42,1.58,2.43,1.9c1.42,0.46,2.91,0.71,4.33,1.17c5.3,1.74,7.75,5.24,7.04,9.92
					c-0.71,4.67-4.57,7.83-9.81,8.03C225.99,187.05,225.58,187.04,225.17,187.04z"/>
				<path class="st3" d="M367.9,172.83c0-3.54,0.1-7.08-0.04-10.62c-0.08-2.14,0.34-3.21,2.84-3.11c4.76,0.19,9.53,0.15,14.29,0.01
					c2.21-0.07,2.79,0.75,2.74,2.83c-0.05,1.91-0.27,3.12-2.63,2.97c-2.58-0.17-5.17,0.01-7.76-0.05c-1.47-0.03-2.24,0.35-2.27,2.04
					c-0.03,1.79,0.65,2.45,2.39,2.37c1.77-0.08,3.54-0.05,5.31-0.01c2.03,0.05,4.34-0.81,4.32,2.94c-0.02,3.6-2.27,2.58-4.08,2.68
					c-1.63,0.09-3.27,0.09-4.9,0c-1.87-0.11-3.03,0.16-3.08,2.55c-0.05,2.6,1.2,2.91,3.26,2.8c2.04-0.11,4.11,0.17,6.12-0.07
					c2.94-0.35,3.78,0.82,3.56,3.63c-0.14,1.77-0.33,2.71-2.44,2.66c-5.03-0.13-10.07-0.12-15.11,0c-1.97,0.04-2.61-0.66-2.55-2.58
					C367.98,180.19,367.9,176.51,367.9,172.83z"/>
				<path class="st3" d="M33.37,173.68c-0.04-11.39,6.75-17.09,16.09-14.53c2.29,0.63,3.88,1.97,5.02,3.86
					c0.74,1.23,2.84,3.03,1.06,3.98c-1.69,0.9-4.21,3.46-6.54-0.15c-1.98-3.07-6.09-2.48-7.46,0.9c-1.3,3.23-1.11,6.67-0.11,9.99
					c0.52,1.72,1.88,2.62,3.67,2.75c1.99,0.14,3.59-0.73,4.19-2.58c1.56-4.77,4.28-1.18,6.07-0.62c2.51,0.78,0.5,2.71-0.04,3.92
					c-2.01,4.59-5.84,6.12-10.61,5.84c-5.21-0.3-8.52-3.13-10.41-7.82C33.47,177.17,33.33,174.99,33.37,173.68z"/>
				<path class="st3" d="M453.84,159.16c2.32,0,4.65,0.18,6.94-0.04c3.08-0.31,4.28,0.58,4.13,3.94c-0.12,2.68-1.36,2.98-3.28,2.64
					c-3.78-0.68-4.57,1.02-4.35,4.46c0.29,4.48-0.12,9,0.13,13.48c0.19,3.49-2.07,2.74-3.99,2.79c-2.05,0.05-4.1,0.46-3.89-2.93
					c0.28-4.61-0.09-9.27,0.12-13.89c0.13-2.85-0.4-4.5-3.69-3.88c-2.86,0.54-3.57-0.72-3.65-3.54c-0.09-3.21,1.57-3.1,3.76-3.03
					C448.67,159.22,451.26,159.16,453.84,159.16z"/>
				<path class="st3" d="M352.77,159.15c2.32,0,4.64,0.05,6.96-0.01c2.4-0.06,4.37-0.32,4.31,3.39c-0.06,3.43-1.77,3.49-4.07,3.16
					c-3.09-0.45-4.01,0.72-3.84,3.8c0.27,4.76-0.09,9.55,0.13,14.31c0.15,3.23-1.91,2.6-3.72,2.61c-1.86,0.01-3.89,0.54-3.75-2.65
					c0.2-4.76-0.16-9.56,0.12-14.31c0.18-3.12-0.82-4.26-3.84-3.73c-2.92,0.51-4.12-0.44-3.91-3.66c0.15-2.3,0.74-3.08,3.03-2.94
					C347.04,159.28,349.91,159.15,352.77,159.15z"/>
				<path class="st3" d="M321.7,172.3c0-3.54,0.16-7.09-0.04-10.63c-0.19-3.34,2.1-2.44,3.81-2.49c1.81-0.05,3.85-0.64,3.68,2.61
					c-0.25,4.62,0.11,9.27-0.12,13.89c-0.15,2.93,0.52,4.42,3.75,3.92c1.2-0.19,2.45-0.03,3.67-0.03c3.9,0.02,5.03,1.67,4.06,5.52
					c-0.34,1.35-1.15,1.3-2.09,1.3c-4.77,0.02-9.54-0.07-14.31,0.05c-2.07,0.05-2.5-0.87-2.45-2.7
					C321.76,179.93,321.69,176.11,321.7,172.3z"/>
				<path class="st3" d="M61.17,160.07c0.33-0.33,0.66-0.66,0.99-0.99c6.11,0.19,6.11,0.19,6.12,6.36c0,3.8,0.1,7.61-0.03,11.41
					c-0.07,2.16,0.76,2.91,2.85,2.75c1.62-0.13,3.29,0.19,4.88-0.06c3.77-0.6,4.18,1.37,4.03,4.43c-0.1,2.05-0.87,2.51-2.7,2.48
					c-4.48-0.08-8.97-0.12-13.45,0.02c-2.13,0.07-2.8-0.59-2.76-2.75C61.22,175.83,61.16,167.95,61.17,160.07z"/>
				<path class="st3" d="M476.59,172.93c0,3.68-0.14,7.36,0.05,11.03c0.15,2.93-1.74,2.57-3.46,2.43c-1.64-0.13-4.06,1.03-4.02-2.33
					c0.09-7.49,0.12-14.99-0.01-22.48c-0.06-3.37,2.26-2.33,3.93-2.39c1.59-0.05,3.69-0.78,3.55,2.29
					C476.46,165.29,476.59,169.11,476.59,172.93z"/>
				<path class="st3" d="M207.77,176.48c-1.42-1.64-1.33-2.34,0.34-3.76c2.68-2.29,3.56-5.35,2.28-8.86
					c-1.27-3.46-3.81-4.72-7.31-4.67c-3.82,0.05-7.64,0.07-11.45-0.06c-1.92-0.06-2.62,0.54-2.59,2.54
					c0.1,7.36,0.02,14.73,0.06,22.09c0,0.98-0.4,2.12,1.17,2.63c4.21,1.36,6.62-0.26,6.63-4.62c0-0.82-0.12-1.66,0.03-2.45
					c0.22-1.23-0.89-3.17,0.84-3.54c1.63-0.34,2.28,1.57,2.99,2.85c0.33,0.59,0.56,1.24,0.86,1.85c3.03,6.25,3.03,6.25,10.97,5.69
					C211.02,182.66,210.09,179.18,207.77,176.48z M199.81,170.04c-1.8,0.07-3.25,0.03-3-2.45c0.17-1.61-0.33-3.56,2.1-3.06
					c2.31-0.01,4.44,0.18,4.55,2.68C203.56,169.43,201.78,169.97,199.81,170.04z"/>
				<path class="st3" d="M409.58,174.33c0.54-0.35,1-0.63,1.44-0.95c3.39-2.4,3.92-5.87,2.93-9.46c-1.02-3.65-3.98-4.86-7.63-4.77
					c-3.67,0.09-7.35,0.04-11.03-0.02c-1.51-0.02-2.55,0.07-2.53,2.1c0.1,7.76,0.04,15.52,0.05,23.28c0,0.79-0.03,1.49,1.04,1.87
					c3.87,1.36,6.17-0.3,6.38-4.39c0.11-2.16-1.28-5.66,0.87-6.2c2.72-0.69,3.32,2.96,4.37,5.04c3.09,6.14,3.04,6.17,10.43,5.2
					C414.53,181.7,412.72,177.69,409.58,174.33z M407.09,167.62c-0.37,2.81-2.88,2.26-4.86,2.42c-2.9,0.24-1.88-1.89-2.06-3.3
					c-0.36-2.74,1.57-2.22,3.15-2.19C405.36,164.61,407.44,165.02,407.09,167.62z"/>
				<path class="st3" d="M503.93,163.09c-3.45-4.24-9.22-5.67-14.8-3.65c-4.85,1.75-7.23,5.94-7.29,12.86
					c-0.07,7.43,2.3,12,7.14,13.78c9.84,3.61,17.59-2.29,17.59-13.4C506.58,169.24,506.22,165.9,503.93,163.09z M498.66,176.16
					c-0.7,2.7-2.06,4.59-5.02,4.27c-2.8-0.31-4.15-2.31-4.43-5.03c-0.08-0.81-0.11-1.63-0.2-2.99c0.13-0.95,0.13-2.49,0.58-3.89
					c0.67-2.05,2-3.54,4.45-3.49c2.39,0.05,3.71,1.33,4.4,3.52C499.23,171.08,499.33,173.57,498.66,176.16z"/>
				<path class="st3" d="M276.53,180.57c-1.35-0.71-1.41-1.72-0.75-3.05c0.51-1.02,1.56-2.45,0.06-3.22
					c-1.22-0.62-3.35-1.68-4.14-0.57c-1.78,2.49-2.42,0.48-3.4-0.42c-1.62-1.49-0.34-2.39,0.76-3.22c2.68-2,3.32-4.72,2.23-7.63
					c-1.16-3.1-4.1-3.7-6.52-3.94c-6.92-0.05-10.25,4.57-7.61,10.25c0.91,1.97,0.5,2.57-1.02,3.79c-2.85,2.29-4.19,5.45-2.91,9.11
					c1.27,3.65,4.25,5.09,7.93,5.37c2.8,0.21,5.46-0.32,7.89-1.65c1.3-0.71,2.32-1.31,3.6-0.01c1.61,1.63,2.83,1.32,4.15-0.65
					C277.94,183.06,278.94,181.85,276.53,180.57z M263.93,162.89c1.26-0.19,2.61,0.14,2.74,1.61c0.13,1.58-1.01,2.64-2.32,3.47
					c-1.43-0.26-1.89-1.4-2.2-2.53C261.76,164,262.54,163.09,263.93,162.89z M260.11,180.7c-1.34-1.37-1.27-2.85-0.04-4.34
					c1.44-1.75,2.28-0.3,3.23,0.55c1.17,1.05,2.32,2.12,3.64,3.33C264.44,181.97,262.32,182.96,260.11,180.7z"/>
				<path class="st3" d="M124.39,160.83c-0.58-1.87-1.93-1.89-3.2-1.62c-2.08,0.44-5.1-1.64-6.16,1.32c-3,8.4-5.6,16.94-8.38,25.49
					c5.8,0.73,5.8,0.73,8.28-3.02c0.89-1.35,8.73-1.63,8.97-0.2c1.03,5.91,5.21,2.94,8.58,3.56
					C129.69,177.59,126.97,169.23,124.39,160.83z M121.3,175.9c-1.21,0.61-2.76,0.66-3.91-0.06c-1.05-0.65-0.08-1.68,0.15-2.55
					c0.51-1.91,0.66-3.94,2.13-6.11c0.72,2.39,1.33,4.25,1.82,6.15C121.71,174.18,122.4,175.34,121.3,175.9z"/>
				<path class="st3" d="M317.76,183.93c-2.48-7.01-4.7-14.12-6.82-21.25c-0.83-2.78-2.13-4.27-5.23-3.5
					c-1.51,0.58-3.81-1.21-4.74,1.64c-2.55,7.87-5.21,15.69-7.81,23.54c-0.25,0.76-0.59,1.51,0.48,2.02c2.11,1,6.51-0.43,7.17-2.64
					c0.47-1.58,1.39-1.95,2.68-1.71c2.14,0.39,5.53-1.44,6.22,1.13c1.08,4.02,3.67,3.15,6.23,3.26
					C317.82,186.48,318.6,186.28,317.76,183.93z M307.32,175.88c-1.19,0.68-2.73,0.65-3.92,0.03c-1.13-0.59-0.22-1.72-0.02-2.55
					c0.47-1.95,1.07-3.86,1.62-5.79c0.26-0.03,0.52-0.06,0.78-0.09c0.56,1.94,1.14,3.87,1.66,5.82
					C307.67,174.17,308.36,175.29,307.32,175.88z"/>
				<path class="st3" d="M441.99,182.76c-2.32-7.1-4.87-14.13-7.02-21.28c-0.63-2.11-1.69-2.67-3.43-2.28
					c-2.1,0.47-4.99-1.66-6.16,2.02c-2.62,8.26-5.39,16.47-8.23,25.13c2.9-0.62,6.35,1.94,7.7-1.73c1.34-3.64,3.94-2.36,6.25-2.65
					c2.16-0.27,3.15,0.36,3.9,2.75c1.09,3.46,4.54,1.68,6.72,1.46C444.15,185.94,442.37,183.91,441.99,182.76z M431.94,175.96
					c-1.05,0.39-2.53,0.37-3.56-0.07c-1.3-0.57-0.47-1.95-0.24-2.91c0.46-1.98,1.13-3.91,1.96-6.7c0.82,2.71,1.58,4.75,2.02,6.85
					C432.3,174.02,433.45,175.4,431.94,175.96z"/>
			</g>
		</g>
	</g>
</g>
</svg>
