<svg id="Layer_1" data-name="Layer 1" xmlns="http://www.w3.org/2000/svg" viewBox="0 0 61.16 41.1"><defs><style>.cls-1{fill:none;stroke:#313131;stroke-linecap:round;stroke-linejoin:round;}</style></defs><polyline class="cls-1" points="0.5 40.6 30.5 23.42 30.58 23.46 30.65 23.42 60.66 40.6"/><line class="cls-1" x1="53.15" y1="36.31" x2="8.01" y2="36.31"/><path class="cls-1" d="M35.06,27.84A6.78,6.78,0,0,1,40,30L43,33.15a43.34,43.34,0,0,0,9.86,7.92l6.41,3.77a11.85,11.85,0,0,1,5.85,10.21H4.92a11.85,11.85,0,0,1,5.85-10.21l6.41-3.77A43.34,43.34,0,0,0,27,33.15L30,30a6.78,6.78,0,0,1,5-2.17" transform="translate(-4.42 -14.45)"/><path class="cls-1" d="M30.7,19.24a4.3,4.3,0,1,1,6.88,3.45A6.41,6.41,0,0,0,35,27.84" transform="translate(-4.42 -14.45)"/></svg>