<svg id="Layer_1" data-name="Layer 1" xmlns="http://www.w3.org/2000/svg" viewBox="0 0 63.69 65.54"><defs><style>.cls-1{fill:none;stroke:#313131;stroke-linecap:round;stroke-linejoin:round;stroke-width:1.5px;}</style></defs><polyline class="cls-1" points="3.65 64.79 20.56 25.74 20.66 25.72 20.7 25.63 62.94 20.45"/><line class="cls-1" x1="52.37" y1="21.75" x2="7.88" y2="55.02"/><path class="cls-1" d="M17.29,19.16a8.3,8.3,0,0,1,6.5-1.53l5.2.94a54.05,54.05,0,0,0,15.55.54l9.1-1a14.57,14.57,0,0,1,13.29,5.75L7.64,68.19A14.6,14.6,0,0,1,5.88,53.81l3.54-8.44A53.45,53.45,0,0,0,13.3,30.3l.56-5.25a8.39,8.39,0,0,1,3.31-5.81" transform="translate(-3.99 -3.4)"/><path class="cls-1" d="M15.75,6.51a5.29,5.29,0,1,0-4.7,8.21,8,8,0,0,1,6.17,3.51" transform="translate(-3.99 -3.4)"/></svg>