<svg id="Layer_1" data-name="Layer 1" xmlns="http://www.w3.org/2000/svg" viewBox="0 0 51.24 66.54"><defs><style>.cls-1{fill:none;}.cls-1,.cls-2{stroke:#000;stroke-miterlimit:10;}.cls-2{fill:#313131;}</style></defs><path class="cls-1" d="M52.35,9.42h3.86a4.24,4.24,0,0,1,4.26,4.21V59.74a4.23,4.23,0,0,1-4.26,4.2h-37A4.23,4.23,0,0,1,15,59.74V13.63a4.24,4.24,0,0,1,4.27-4.21h3.86" transform="translate(-9.74 -1.71)"/><path class="cls-1" d="M55.73,65.71a4.09,4.09,0,0,1-3.83,2H14.55a4.29,4.29,0,0,1-4.31-4.26V16.77a4.13,4.13,0,0,1,2.88-3.93" transform="translate(-9.74 -1.71)"/><path class="cls-1" d="M37.73,2.21s-14.62,0-14.62,7.34c0,6.49,14.62,16.71,14.62,16.71S52.35,16,52.35,9.55C52.35,2.07,37.73,2.21,37.73,2.21Z" transform="translate(-9.74 -1.71)"/><path class="cls-1" d="M51.27,13C48.1,8.14,37.72,8.62,37.72,8.62s-10.3-.31-13.49,4.5" transform="translate(-9.74 -1.71)"/><path class="cls-1" d="M52.35,9.55s3.1,8.82-.52,22.32L37.73,26" transform="translate(-9.74 -1.71)"/><path class="cls-1" d="M23.11,9.55s-3.1,8.82.52,22.32L37.73,26" transform="translate(-9.74 -1.71)"/><line class="cls-1" x1="24.74" y1="25.68" x2="24.74" y2="62.24"/><path class="cls-2" d="M42.6,36.68A1.63,1.63,0,1,1,41,35.08,1.62,1.62,0,0,1,42.6,36.68Z" transform="translate(-9.74 -1.71)"/><path class="cls-2" d="M42.6,46.3A1.63,1.63,0,1,1,41,44.7,1.62,1.62,0,0,1,42.6,46.3Z" transform="translate(-9.74 -1.71)"/><path class="cls-2" d="M42.6,55.93A1.63,1.63,0,1,1,41,54.32,1.62,1.62,0,0,1,42.6,55.93Z" transform="translate(-9.74 -1.71)"/></svg>